  <svg class="form-control border rounded" name="outputsvg" id="outputsvg" width="100%" viewBox="-213.28818040700816 -213.28818040700816 426.5763608140163 426.5763608140163"><path d="M 25.711504387461574 -30.64177772475912 A 40 40 0 0 0 13.680805733026753 -37.587704831436334 L 6.840402866513377 -18.793852415718167 A 20 20 0 0 1 12.855752193730787 -15.32088886237956 L 25.711504387461574 -30.64177772475912" style="stroke: black; fill: black; stroke-width: 0.25;"></path><path d="M 25.711504387461574 30.64177772475912 A 40 40 0 0 0 34.64101615137755 19.999999999999996 L 17.320508075688775 9.999999999999998 A 20 20 0 0 1 12.855752193730787 15.32088886237956 L 25.711504387461574 30.64177772475912" style="stroke: black; fill: black; stroke-width: 0.25;"></path><path d="M 13.680805733026753 37.587704831436334 A 40 40 0 0 0 25.711504387461574 30.64177772475912 L 12.855752193730787 15.32088886237956 A 20 20 0 0 1 6.840402866513377 18.793852415718167 L 13.680805733026753 37.587704831436334" style="stroke: black; fill: black; stroke-width: 0.25;"></path><path d="M 2.4492935982947065e-15 40 A 40 40 0 0 0 13.680805733026753 37.587704831436334 L 6.840402866513377 18.793852415718167 A 20 20 0 0 1 1.2246467991473533e-15 20 L 2.4492935982947065e-15 40" style="stroke: black; fill: black; stroke-width: 0.25;"></path><path d="M -13.680805733026748 37.58770483143634 A 40 40 0 0 0 2.4492935982947065e-15 40 L 1.2246467991473533e-15 20 A 20 20 0 0 1 -6.840402866513374 18.79385241571817 L -13.680805733026748 37.58770483143634" style="stroke: black; fill: black; stroke-width: 0.25;"></path><path d="M -25.711504387461574 30.64177772475912 A 40 40 0 0 0 -13.680805733026748 37.58770483143634 L -6.840402866513374 18.79385241571817 A 20 20 0 0 1 -12.855752193730787 15.32088886237956 L -25.711504387461574 30.64177772475912" style="stroke: black; fill: black; stroke-width: 0.25;"></path><path d="M -39.39231012048832 6.945927106677211 A 40 40 0 0 0 -34.64101615137755 19.999999999999996 L -17.320508075688775 9.999999999999998 A 20 20 0 0 1 -19.69615506024416 3.4729635533386056 L -39.39231012048832 6.945927106677211" style="stroke: black; fill: black; stroke-width: 0.25;"></path><path d="M -25.71150438746158 -30.641777724759116 A 40 40 0 0 0 -34.64101615137754 -20.000000000000004 L -17.32050807568877 -10.000000000000002 A 20 20 0 0 1 -12.85575219373079 -15.320888862379558 L -25.71150438746158 -30.641777724759116" style="stroke: black; fill: black; stroke-width: 0.25;"></path><path d="M -13.680805733026775 -37.58770483143633 A 40 40 0 0 0 -25.71150438746158 -30.641777724759116 L -12.85575219373079 -15.320888862379558 A 20 20 0 0 1 -6.840402866513387 -18.793852415718163 L -13.680805733026775 -37.58770483143633" style="stroke: black; fill: black; stroke-width: 0.25;"></path><path d="M -7.347880794884118e-15 -40 A 40 40 0 0 0 -13.680805733026775 -37.58770483143633 L -6.840402866513387 -18.793852415718163 A 20 20 0 0 1 -3.673940397442059e-15 -20 L -7.347880794884118e-15 -40" style="stroke: black; fill: black; stroke-width: 0.25;"></path><path d="M 10.418890660015824 -59.088465180732484 A 60 60 0 0 0 3.67394039744206e-15 -60 L 2.4492935982947065e-15 -40 A 40 40 0 0 1 6.945927106677217 -39.39231012048832 L 10.418890660015824 -59.088465180732484" style="stroke: black; fill: black; stroke-width: 0.25;"></path><path d="M 38.56725658119236 -45.96266658713868 A 60 60 0 0 0 30.000000000000007 -51.96152422706631 L 20.000000000000004 -34.64101615137754 A 40 40 0 0 1 25.711504387461574 -30.64177772475912 L 38.56725658119236 -45.96266658713868" style="stroke: black; fill: black; stroke-width: 0.25;"></path><path d="M 56.381557247154504 -20.521208599540124 A 60 60 0 0 0 51.96152422706632 -29.999999999999996 L 34.64101615137755 -19.999999999999996 A 40 40 0 0 1 37.58770483143634 -13.680805733026748 L 56.381557247154504 -20.521208599540124" style="stroke: black; fill: black; stroke-width: 0.25;"></path><path d="M 59.088465180732484 -10.418890660015819 A 60 60 0 0 0 56.381557247154504 -20.521208599540124 L 37.58770483143634 -13.680805733026748 A 40 40 0 0 1 39.39231012048832 -6.945927106677213 L 59.088465180732484 -10.418890660015819" style="stroke: black; fill: black; stroke-width: 0.25;"></path><path d="M 59.088465180732484 10.418890660015819 A 60 60 0 0 0 60 0 L 40 0 A 40 40 0 0 1 39.39231012048832 6.945927106677213 L 59.088465180732484 10.418890660015819" style="stroke: black; fill: black; stroke-width: 0.25;"></path><path d="M 20.52120859954013 56.3815572471545 A 60 60 0 0 0 30.000000000000007 51.96152422706631 L 20.000000000000004 34.64101615137754 A 40 40 0 0 1 13.680805733026753 37.587704831436334 L 20.52120859954013 56.3815572471545" style="stroke: black; fill: black; stroke-width: 0.25;"></path><path d="M 10.418890660015824 59.088465180732484 A 60 60 0 0 0 20.52120859954013 56.3815572471545 L 13.680805733026753 37.587704831436334 A 40 40 0 0 1 6.945927106677217 39.39231012048832 L 10.418890660015824 59.088465180732484" style="stroke: black; fill: black; stroke-width: 0.25;"></path><path d="M 3.67394039744206e-15 60 A 60 60 0 0 0 10.418890660015824 59.088465180732484 L 6.945927106677217 39.39231012048832 A 40 40 0 0 1 2.4492935982947065e-15 40 L 3.67394039744206e-15 60" style="stroke: black; fill: black; stroke-width: 0.25;"></path><path d="M -10.418890660015819 59.088465180732484 A 60 60 0 0 0 3.67394039744206e-15 60 L 2.4492935982947065e-15 40 A 40 40 0 0 1 -6.945927106677212 39.39231012048832 L -10.418890660015819 59.088465180732484" style="stroke: black; fill: black; stroke-width: 0.25;"></path><path d="M -20.521208599540124 56.381557247154504 A 60 60 0 0 0 -10.418890660015819 59.088465180732484 L -6.945927106677212 39.39231012048832 A 40 40 0 0 1 -13.680805733026748 37.58770483143634 L -20.521208599540124 56.381557247154504" style="stroke: black; fill: black; stroke-width: 0.25;"></path><path d="M -29.999999999999986 51.96152422706632 A 60 60 0 0 0 -20.521208599540124 56.381557247154504 L -13.680805733026748 37.58770483143634 A 40 40 0 0 1 -19.999999999999993 34.64101615137755 L -29.999999999999986 51.96152422706632" style="stroke: black; fill: black; stroke-width: 0.25;"></path><path d="M -38.56725658119236 45.96266658713868 A 60 60 0 0 0 -29.999999999999986 51.96152422706632 L -19.999999999999993 34.64101615137755 A 40 40 0 0 1 -25.711504387461574 30.64177772475912 L -38.56725658119236 45.96266658713868" style="stroke: black; fill: black; stroke-width: 0.25;"></path><path d="M -56.3815572471545 20.52120859954013 A 60 60 0 0 0 -51.96152422706632 29.999999999999996 L -34.64101615137755 19.999999999999996 A 40 40 0 0 1 -37.587704831436334 13.680805733026755 L -56.3815572471545 20.52120859954013" style="stroke: black; fill: black; stroke-width: 0.25;"></path><path d="M -59.088465180732484 10.418890660015817 A 60 60 0 0 0 -56.3815572471545 20.52120859954013 L -37.587704831436334 13.680805733026755 A 40 40 0 0 1 -39.39231012048832 6.945927106677211 L -59.088465180732484 10.418890660015817" style="stroke: black; fill: black; stroke-width: 0.25;"></path><path d="M -45.96266658713868 -38.56725658119235 A 60 60 0 0 0 -51.96152422706631 -30.000000000000007 L -34.64101615137754 -20.000000000000004 A 40 40 0 0 1 -30.64177772475912 -25.71150438746157 L -45.96266658713868 -38.56725658119235" style="stroke: black; fill: black; stroke-width: 0.25;"></path><path d="M -38.56725658119237 -45.96266658713867 A 60 60 0 0 0 -45.96266658713868 -38.56725658119235 L -30.64177772475912 -25.71150438746157 A 40 40 0 0 1 -25.71150438746158 -30.641777724759116 L -38.56725658119237 -45.96266658713867" style="stroke: black; fill: black; stroke-width: 0.25;"></path><path d="M -20.521208599540163 -56.38155724715449 A 60 60 0 0 0 -30.00000000000003 -51.961524227066306 L -20.000000000000018 -34.641016151377535 A 40 40 0 0 1 -13.680805733026775 -37.58770483143633 L -20.521208599540163 -56.38155724715449" style="stroke: black; fill: black; stroke-width: 0.25;"></path><path d="M -10.418890660015819 -59.088465180732484 A 60 60 0 0 0 -20.521208599540163 -56.38155724715449 L -13.680805733026775 -37.58770483143633 A 40 40 0 0 1 -6.945927106677213 -39.39231012048832 L -10.418890660015819 -59.088465180732484" style="stroke: black; fill: black; stroke-width: 0.25;"></path><path d="M 9.287433130018425 -79.45906861935543 A 80 80 0 0 0 4.898587196589413e-15 -80 L 3.67394039744206e-15 -60 A 60 60 0 0 1 6.965574847513818 -59.59430146451658 L 9.287433130018425 -79.45906861935543" style="stroke: black; fill: black; stroke-width: 0.25;"></path><path d="M 35.90393441603698 -71.49061122587297 A 80 80 0 0 0 27.361611466053507 -75.17540966287267 L 20.52120859954013 -56.3815572471545 A 60 60 0 0 1 26.92795081202774 -53.61795841940473 L 35.90393441603698 -71.49061122587297" style="stroke: black; fill: black; stroke-width: 0.25;"></path><path d="M 43.96071824566449 -66.8390249130349 A 80 80 0 0 0 35.90393441603698 -71.49061122587297 L 26.92795081202774 -53.61795841940473 A 60 60 0 0 1 32.97053868424837 -50.129268684776186 L 43.96071824566449 -66.8390249130349" style="stroke: black; fill: black; stroke-width: 0.25;"></path><path d="M 58.1898913258439 -54.89933102949869 A 80 80 0 0 0 51.42300877492315 -61.28355544951824 L 38.56725658119236 -45.96266658713868 A 60 60 0 0 1 43.64241849438292 -41.17449827212402 L 58.1898913258439 -54.89933102949869" style="stroke: black; fill: black; stroke-width: 0.25;"></path><path d="M 64.16985542040351 -47.772687336222894 A 80 80 0 0 0 58.18989132584391 -54.89933102949868 L 43.64241849438293 -41.17449827212401 A 60 60 0 0 1 48.12739156530263 -35.82951550216717 L 64.16985542040351 -47.772687336222894" style="stroke: black; fill: black; stroke-width: 0.25;"></path><path d="M 69.2820323027551 -39.99999999999999 A 80 80 0 0 0 64.16985542040351 -47.772687336222894 L 48.12739156530263 -35.82951550216717 A 60 60 0 0 1 51.96152422706632 -29.999999999999996 L 69.2820323027551 -39.99999999999999" style="stroke: black; fill: black; stroke-width: 0.25;"></path><path d="M 76.63916098523912 -22.944258616887208 A 80 80 0 0 0 73.45728855042192 -31.68638128313254 L 55.09296641281644 -23.764785962349404 A 60 60 0 0 1 57.47937073892933 -17.208193962665405 L 76.63916098523912 -22.944258616887208" style="stroke: black; fill: black; stroke-width: 0.25;"></path><path d="M 79.86465266170146 -4.6515863128380595 A 80 80 0 0 0 78.78462024097664 -13.891854213354426 L 59.088465180732484 -10.418890660015819 A 60 60 0 0 1 59.89848949627609 -3.488689734628544 L 79.86465266170146 -4.6515863128380595" style="stroke: black; fill: black; stroke-width: 0.25;"></path><path d="M 79.86465266170146 4.651586312838079 A 80 80 0 0 0 79.86465266170146 -4.6515863128380595 L 59.89848949627609 -3.488689734628544 A 60 60 0 0 1 59.89848949627609 3.4886897346285592 L 79.86465266170146 4.651586312838079" style="stroke: black; fill: black; stroke-width: 0.25;"></path><path d="M 76.63916098523912 22.944258616887222 A 80 80 0 0 0 78.78462024097664 13.891854213354426 L 59.088465180732484 10.418890660015819 A 60 60 0 0 1 57.47937073892933 17.208193962665415 L 76.63916098523912 22.944258616887222" style="stroke: black; fill: black; stroke-width: 0.25;"></path><path d="M 73.45728855042192 31.686381283132555 A 80 80 0 0 0 76.63916098523912 22.944258616887222 L 57.47937073892933 17.208193962665415 A 60 60 0 0 1 55.09296641281644 23.764785962349418 L 73.45728855042192 31.686381283132555" style="stroke: black; fill: black; stroke-width: 0.25;"></path><path d="M 69.28203230275508 40.000000000000014 A 80 80 0 0 0 73.45728855042192 31.686381283132555 L 55.09296641281644 23.764785962349418 A 60 60 0 0 1 51.961524227066306 30.000000000000014 L 69.28203230275508 40.000000000000014" style="stroke: black; fill: black; stroke-width: 0.25;"></path><path d="M 64.1698554204035 47.772687336222894 A 80 80 0 0 0 69.2820323027551 39.99999999999999 L 51.96152422706632 29.999999999999996 A 60 60 0 0 1 48.127391565302624 35.82951550216717 L 64.1698554204035 47.772687336222894" style="stroke: black; fill: black; stroke-width: 0.25;"></path><path d="M 58.18989132584388 54.8993310294987 A 80 80 0 0 0 64.1698554204035 47.772687336222894 L 48.127391565302624 35.82951550216717 A 60 60 0 0 1 43.64241849438291 41.174498272124026 L 58.18989132584388 54.8993310294987" style="stroke: black; fill: black; stroke-width: 0.25;"></path><path d="M 43.96071824566449 66.8390249130349 A 80 80 0 0 0 51.42300877492315 61.28355544951824 L 38.56725658119236 45.96266658713868 A 60 60 0 0 1 32.97053868424837 50.129268684776186 L 43.96071824566449 66.8390249130349" style="stroke: black; fill: black; stroke-width: 0.25;"></path><path d="M 18.449269659395238 77.84358964638591 A 80 80 0 0 0 27.361611466053507 75.17540966287267 L 20.52120859954013 56.3815572471545 A 60 60 0 0 1 13.836952244546428 58.38269223478943 L 18.449269659395238 77.84358964638591" style="stroke: black; fill: black; stroke-width: 0.25;"></path><path d="M 9.287433130018425 79.45906861935543 A 80 80 0 0 0 18.449269659395185 77.84358964638591 L 13.83695224454639 58.38269223478944 A 60 60 0 0 1 6.965574847513818 59.59430146451658 L 9.287433130018425 79.45906861935543" style="stroke: black; fill: black; stroke-width: 0.25;"></path><path d="M 4.898587196589413e-15 80 A 80 80 0 0 0 9.287433130018425 79.45906861935543 L 6.965574847513818 59.59430146451658 A 60 60 0 0 1 3.67394039744206e-15 60 L 4.898587196589413e-15 80" style="stroke: black; fill: black; stroke-width: 0.25;"></path><path d="M -9.287433130018396 79.45906861935543 A 80 80 0 0 0 4.898587196589413e-15 80 L 3.67394039744206e-15 60 A 60 60 0 0 1 -6.965574847513797 59.59430146451658 L -9.287433130018396 79.45906861935543" style="stroke: black; fill: black; stroke-width: 0.25;"></path><path d="M -35.90393441603694 71.490611225873 A 80 80 0 0 0 -27.361611466053496 75.17540966287268 L -20.521208599540124 56.381557247154504 A 60 60 0 0 1 -26.927950812027706 53.61795841940475 L -35.90393441603694 71.490611225873" style="stroke: black; fill: black; stroke-width: 0.25;"></path><path d="M -58.1898913258439 54.89933102949869 A 80 80 0 0 0 -51.42300877492315 61.28355544951824 L -38.56725658119236 45.96266658713868 A 60 60 0 0 1 -43.64241849438292 41.17449827212402 L -58.1898913258439 54.89933102949869" style="stroke: black; fill: black; stroke-width: 0.25;"></path><path d="M -64.16985542040351 47.772687336222894 A 80 80 0 0 0 -58.1898913258439 54.89933102949869 L -43.64241849438292 41.17449827212402 A 60 60 0 0 1 -48.12739156530263 35.82951550216717 L -64.16985542040351 47.772687336222894" style="stroke: black; fill: black; stroke-width: 0.25;"></path><path d="M -73.45728855042192 31.686381283132544 A 80 80 0 0 0 -69.2820323027551 39.99999999999999 L -51.96152422706632 29.999999999999996 A 60 60 0 0 1 -55.09296641281644 23.764785962349407 L -73.45728855042192 31.686381283132544" style="stroke: black; fill: black; stroke-width: 0.25;"></path><path d="M -76.63916098523912 22.94425861688722 A 80 80 0 0 0 -73.45728855042192 31.686381283132544 L -55.09296641281644 23.764785962349407 A 60 60 0 0 1 -57.47937073892933 17.208193962665412 L -76.63916098523912 22.94425861688722" style="stroke: black; fill: black; stroke-width: 0.25;"></path><path d="M -78.78462024097664 13.891854213354422 A 80 80 0 0 0 -76.63916098523912 22.94425861688722 L -57.47937073892933 17.208193962665412 A 60 60 0 0 1 -59.088465180732484 10.418890660015817 L -78.78462024097664 13.891854213354422" style="stroke: black; fill: black; stroke-width: 0.25;"></path><path d="M -79.86465266170146 4.651586312838059 A 80 80 0 0 0 -78.78462024097664 13.891854213354422 L -59.088465180732484 10.418890660015817 A 60 60 0 0 1 -59.89848949627609 3.4886897346285437 L -79.86465266170146 4.651586312838059" style="stroke: black; fill: black; stroke-width: 0.25;"></path><path d="M -76.6391609852391 -22.94425861688723 A 80 80 0 0 0 -78.78462024097664 -13.891854213354438 L -59.088465180732484 -10.418890660015828 A 60 60 0 0 1 -57.479370738929326 -17.208193962665423 L -76.6391609852391 -22.94425861688723" style="stroke: black; fill: black; stroke-width: 0.25;"></path><path d="M -73.45728855042191 -31.686381283132587 A 80 80 0 0 0 -76.6391609852391 -22.94425861688723 L -57.479370738929326 -17.208193962665423 A 60 60 0 0 1 -55.09296641281642 -23.76478596234944 L -73.45728855042191 -31.686381283132587" style="stroke: black; fill: black; stroke-width: 0.25;"></path><path d="M -58.18989132584386 -54.899331029498725 A 80 80 0 0 0 -64.1698554204035 -47.7726873362229 L -48.127391565302624 -35.829515502167176 A 60 60 0 0 1 -43.642418494382895 -41.17449827212404 L -58.18989132584386 -54.899331029498725" style="stroke: black; fill: black; stroke-width: 0.25;"></path><path d="M -43.960718245664474 -66.83902491303492 A 80 80 0 0 0 -51.42300877492316 -61.28355544951823 L -38.56725658119237 -45.96266658713867 A 60 60 0 0 1 -32.97053868424835 -50.12926868477619 L -43.960718245664474 -66.83902491303492" style="stroke: black; fill: black; stroke-width: 0.25;"></path><path d="M -9.2874331300184 -79.45906861935543 A 80 80 0 0 0 -18.44926965939523 -77.84358964638591 L -13.836952244546424 -58.38269223478943 A 60 60 0 0 1 -6.965574847513799 -59.59430146451658 L -9.2874331300184 -79.45906861935543" style="stroke: black; fill: black; stroke-width: 0.25;"></path><path d="M 5.6358511986241776e-14 -80 A 80 80 0 0 0 -9.2874331300184 -79.45906861935543 L -6.965574847513799 -59.59430146451658 A 60 60 0 0 1 4.226888398968133e-14 -60 L 5.6358511986241776e-14 -80" style="stroke: black; fill: black; stroke-width: 0.25;"></path><path d="M 17.36481776669304 -98.4807753012208 A 100 100 0 0 0 8.715574274765814 -99.61946980917456 L 6.972459419812651 -79.69557584733964 A 80 80 0 0 1 13.891854213354433 -78.78462024097664 L 17.36481776669304 -98.4807753012208" style="stroke: black; fill: black; stroke-width: 0.25;"></path><path d="M 25.881904510252074 -96.59258262890683 A 100 100 0 0 0 17.36481776669304 -98.4807753012208 L 13.891854213354433 -78.78462024097664 A 80 80 0 0 1 20.70552360820166 -77.27406610312546 L 25.881904510252074 -96.59258262890683" style="stroke: black; fill: black; stroke-width: 0.25;"></path><path d="M 34.20201433256688 -93.96926207859083 A 100 100 0 0 0 25.881904510252074 -96.59258262890683 L 20.70552360820166 -77.27406610312546 A 80 80 0 0 1 27.361611466053507 -75.17540966287267 L 34.20201433256688 -93.96926207859083" style="stroke: black; fill: black; stroke-width: 0.25;"></path><path d="M 42.261826174069945 -90.63077870366499 A 100 100 0 0 0 34.20201433256688 -93.96926207859083 L 27.361611466053507 -75.17540966287267 A 80 80 0 0 1 33.809460939255956 -72.50462296293199 L 42.261826174069945 -90.63077870366499" style="stroke: black; fill: black; stroke-width: 0.25;"></path><path d="M 57.357643635104615 -81.91520442889917 A 100 100 0 0 0 50.000000000000014 -86.60254037844386 L 40.00000000000001 -69.28203230275508 A 80 80 0 0 1 45.88611490808369 -65.53216354311934 L 57.357643635104615 -81.91520442889917" style="stroke: black; fill: black; stroke-width: 0.25;"></path><path d="M 64.27876096865394 -76.60444431189781 A 100 100 0 0 0 57.357643635104615 -81.91520442889917 L 45.88611490808369 -65.53216354311934 A 80 80 0 0 1 51.42300877492315 -61.28355544951824 L 64.27876096865394 -76.60444431189781" style="stroke: black; fill: black; stroke-width: 0.25;"></path><path d="M 76.60444431189781 -64.27876096865393 A 100 100 0 0 0 70.71067811865476 -70.71067811865474 L 56.568542494923804 -56.5685424949238 A 80 80 0 0 1 61.28355544951824 -51.42300877492314 L 76.60444431189781 -64.27876096865393" style="stroke: black; fill: black; stroke-width: 0.25;"></path><path d="M 86.60254037844388 -49.99999999999999 A 100 100 0 0 0 81.91520442889917 -57.35764363510461 L 65.53216354311934 -45.886114908083684 A 80 80 0 0 1 69.2820323027551 -39.99999999999999 L 86.60254037844388 -49.99999999999999" style="stroke: black; fill: black; stroke-width: 0.25;"></path><path d="M 98.4807753012208 -17.364817766693033 A 100 100 0 0 0 96.59258262890683 -25.881904510252074 L 77.27406610312546 -20.70552360820166 A 80 80 0 0 1 78.78462024097664 -13.891854213354426 L 98.4807753012208 -17.364817766693033" style="stroke: black; fill: black; stroke-width: 0.25;"></path><path d="M 99.61946980917456 -8.715574274765817 A 100 100 0 0 0 98.4807753012208 -17.364817766693033 L 78.78462024097664 -13.891854213354426 A 80 80 0 0 1 79.69557584733964 -6.972459419812653 L 99.61946980917456 -8.715574274765817" style="stroke: black; fill: black; stroke-width: 0.25;"></path><path d="M 98.4807753012208 17.364817766693033 A 100 100 0 0 0 99.61946980917456 8.715574274765817 L 79.69557584733964 6.972459419812653 A 80 80 0 0 1 78.78462024097664 13.891854213354426 L 98.4807753012208 17.364817766693033" style="stroke: black; fill: black; stroke-width: 0.25;"></path><path d="M 93.96926207859084 34.20201433256687 A 100 100 0 0 0 96.59258262890683 25.881904510252074 L 77.27406610312546 20.70552360820166 A 80 80 0 0 1 75.17540966287268 27.361611466053496 L 93.96926207859084 34.20201433256687" style="stroke: black; fill: black; stroke-width: 0.25;"></path><path d="M 76.60444431189781 64.27876096865393 A 100 100 0 0 0 81.91520442889917 57.35764363510461 L 65.53216354311934 45.886114908083684 A 80 80 0 0 1 61.28355544951824 51.42300877492314 L 76.60444431189781 64.27876096865393" style="stroke: black; fill: black; stroke-width: 0.25;"></path><path d="M 70.71067811865476 70.71067811865474 A 100 100 0 0 0 76.60444431189781 64.27876096865393 L 61.28355544951824 51.42300877492314 A 80 80 0 0 1 56.568542494923804 56.5685424949238 L 70.71067811865476 70.71067811865474" style="stroke: black; fill: black; stroke-width: 0.25;"></path><path d="M 64.27876096865394 76.60444431189781 A 100 100 0 0 0 70.71067811865476 70.71067811865474 L 56.568542494923804 56.5685424949238 A 80 80 0 0 1 51.42300877492315 61.28355544951824 L 64.27876096865394 76.60444431189781" style="stroke: black; fill: black; stroke-width: 0.25;"></path><path d="M 42.261826174069945 90.63077870366499 A 100 100 0 0 0 50.000000000000014 86.60254037844386 L 40.00000000000001 69.28203230275508 A 80 80 0 0 1 33.809460939255956 72.50462296293199 L 42.261826174069945 90.63077870366499" style="stroke: black; fill: black; stroke-width: 0.25;"></path><path d="M 17.36481776669304 98.4807753012208 A 100 100 0 0 0 25.881904510252074 96.59258262890683 L 20.70552360820166 77.27406610312546 A 80 80 0 0 1 13.891854213354433 78.78462024097664 L 17.36481776669304 98.4807753012208" style="stroke: black; fill: black; stroke-width: 0.25;"></path><path d="M 8.715574274765814 99.61946980917456 A 100 100 0 0 0 17.36481776669304 98.4807753012208 L 13.891854213354433 78.78462024097664 A 80 80 0 0 1 6.972459419812651 79.69557584733964 L 8.715574274765814 99.61946980917456" style="stroke: black; fill: black; stroke-width: 0.25;"></path><path d="M -42.26182617406993 90.630778703665 A 100 100 0 0 0 -34.20201433256687 93.96926207859084 L -27.361611466053496 75.17540966287268 A 80 80 0 0 1 -33.80946093925595 72.504622962932 L -42.26182617406993 90.630778703665" style="stroke: black; fill: black; stroke-width: 0.25;"></path><path d="M -57.35764363510458 81.9152044288992 A 100 100 0 0 0 -49.99999999999998 86.60254037844388 L -39.999999999999986 69.2820323027551 A 80 80 0 0 1 -45.88611490808367 65.53216354311937 L -57.35764363510458 81.9152044288992" style="stroke: black; fill: black; stroke-width: 0.25;"></path><path d="M -64.27876096865394 76.60444431189781 A 100 100 0 0 0 -57.35764363510458 81.9152044288992 L -45.88611490808367 65.53216354311937 A 80 80 0 0 1 -51.42300877492315 61.28355544951824 L -64.27876096865394 76.60444431189781" style="stroke: black; fill: black; stroke-width: 0.25;"></path><path d="M -70.71067811865474 70.71067811865476 A 100 100 0 0 0 -64.27876096865394 76.60444431189781 L -51.42300877492315 61.28355544951824 A 80 80 0 0 1 -56.5685424949238 56.568542494923804 L -70.71067811865474 70.71067811865476" style="stroke: black; fill: black; stroke-width: 0.25;"></path><path d="M -81.91520442889916 57.35764363510464 A 100 100 0 0 0 -76.6044443118978 64.27876096865394 L -61.28355544951823 51.42300877492316 A 80 80 0 0 1 -65.53216354311932 45.88611490808371 L -81.91520442889916 57.35764363510464" style="stroke: black; fill: black; stroke-width: 0.25;"></path><path d="M -86.60254037844388 49.99999999999999 A 100 100 0 0 0 -81.91520442889916 57.35764363510464 L -65.53216354311932 45.88611490808371 A 80 80 0 0 1 -69.2820323027551 39.99999999999999 L -86.60254037844388 49.99999999999999" style="stroke: black; fill: black; stroke-width: 0.25;"></path><path d="M -90.63077870366499 42.26182617406995 A 100 100 0 0 0 -86.60254037844388 49.99999999999999 L -69.2820323027551 39.99999999999999 A 80 80 0 0 1 -72.50462296293199 33.809460939255956 L -90.63077870366499 42.26182617406995" style="stroke: black; fill: black; stroke-width: 0.25;"></path><path d="M -93.96926207859083 34.20201433256689 A 100 100 0 0 0 -90.63077870366499 42.26182617406995 L -72.50462296293199 33.809460939255956 A 80 80 0 0 1 -75.17540966287267 27.36161146605351 L -93.96926207859083 34.20201433256689" style="stroke: black; fill: black; stroke-width: 0.25;"></path><path d="M -98.4807753012208 17.364817766693026 A 100 100 0 0 0 -96.59258262890683 25.881904510252102 L -77.27406610312545 20.70552360820168 A 80 80 0 0 1 -78.78462024097664 13.891854213354422 L -98.4807753012208 17.364817766693026" style="stroke: black; fill: black; stroke-width: 0.25;"></path><path d="M -99.61946980917456 8.715574274765864 A 100 100 0 0 0 -98.4807753012208 17.364817766693026 L -78.78462024097664 13.891854213354422 A 80 80 0 0 1 -79.69557584733964 6.972459419812691 L -99.61946980917456 8.715574274765864" style="stroke: black; fill: black; stroke-width: 0.25;"></path><path d="M -99.61946980917456 -8.715574274765794 A 100 100 0 0 0 -100 1.2246467991473532e-14 L -80 9.797174393178826e-15 A 80 80 0 0 1 -79.69557584733964 -6.972459419812635 L -99.61946980917456 -8.715574274765794" style="stroke: black; fill: black; stroke-width: 0.25;"></path><path d="M -98.4807753012208 -17.364817766693047 A 100 100 0 0 0 -99.61946980917456 -8.715574274765794 L -79.69557584733964 -6.972459419812635 A 80 80 0 0 1 -78.78462024097664 -13.891854213354438 L -98.4807753012208 -17.364817766693047" style="stroke: black; fill: black; stroke-width: 0.25;"></path><path d="M -96.59258262890684 -25.881904510252035 A 100 100 0 0 0 -98.4807753012208 -17.364817766693047 L -78.78462024097664 -13.891854213354438 A 80 80 0 0 1 -77.27406610312548 -20.705523608201627 L -96.59258262890684 -25.881904510252035" style="stroke: black; fill: black; stroke-width: 0.25;"></path><path d="M -93.96926207859084 -34.20201433256687 A 100 100 0 0 0 -96.59258262890684 -25.881904510252035 L -77.27406610312548 -20.705523608201627 A 80 80 0 0 1 -75.17540966287268 -27.361611466053493 L -93.96926207859084 -34.20201433256687" style="stroke: black; fill: black; stroke-width: 0.25;"></path><path d="M -81.9152044288992 -57.35764363510458 A 100 100 0 0 0 -86.60254037844386 -50.000000000000014 L -69.28203230275508 -40.00000000000001 A 80 80 0 0 1 -65.53216354311937 -45.88611490808367 L -81.9152044288992 -57.35764363510458" style="stroke: black; fill: black; stroke-width: 0.25;"></path><path d="M -76.60444431189781 -64.27876096865393 A 100 100 0 0 0 -81.9152044288992 -57.35764363510458 L -65.53216354311937 -45.88611490808367 A 80 80 0 0 1 -61.28355544951824 -51.42300877492314 L -76.60444431189781 -64.27876096865393" style="stroke: black; fill: black; stroke-width: 0.25;"></path><path d="M -42.261826174069995 -90.63077870366497 A 100 100 0 0 0 -50.00000000000004 -86.60254037844383 L -40.000000000000036 -69.28203230275507 A 80 80 0 0 1 -33.809460939256 -72.50462296293198 L -42.261826174069995 -90.63077870366497" style="stroke: black; fill: black; stroke-width: 0.25;"></path><path d="M -34.20201433256694 -93.96926207859082 A 100 100 0 0 0 -42.261826174069995 -90.63077870366497 L -33.809460939256 -72.50462296293198 A 80 80 0 0 1 -27.36161146605355 -75.17540966287265 L -34.20201433256694 -93.96926207859082" style="stroke: black; fill: black; stroke-width: 0.25;"></path><path d="M -17.364817766693033 -98.4807753012208 A 100 100 0 0 0 -25.881904510252063 -96.59258262890683 L -20.705523608201652 -77.27406610312546 A 80 80 0 0 1 -13.891854213354426 -78.78462024097664 L -17.364817766693033 -98.4807753012208" style="stroke: black; fill: black; stroke-width: 0.25;"></path><path d="M -8.715574274765824 -99.61946980917456 A 100 100 0 0 0 -17.364817766693033 -98.4807753012208 L -13.891854213354426 -78.78462024097664 A 80 80 0 0 1 -6.97245941981266 -79.69557584733964 L -8.715574274765824 -99.61946980917456" style="stroke: black; fill: black; stroke-width: 0.25;"></path><path d="M 8.370776849295055 -119.70768603117891 A 120 120 0 0 0 7.34788079488412e-15 -120 L 6.123233995736766e-15 -100 A 100 100 0 0 1 6.975647374412546 -99.75640502598242 L 8.370776849295055 -119.70768603117891" style="stroke: black; fill: black; stroke-width: 0.25;"></path><path d="M 16.700772115207883 -118.83216824898842 A 120 120 0 0 0 8.370776849295055 -119.70768603117891 L 6.975647374412546 -99.75640502598242 A 100 100 0 0 1 13.917310096006569 -99.02680687415703 L 16.700772115207883 -118.83216824898842" style="stroke: black; fill: black; stroke-width: 0.25;"></path><path d="M 41.04241719908026 -112.763114494309 A 120 120 0 0 0 33.0764826980399 -115.35140351259827 L 27.563735581699916 -96.12616959383189 A 100 100 0 0 1 34.20201433256688 -93.96926207859083 L 41.04241719908026 -112.763114494309" style="stroke: black; fill: black; stroke-width: 0.25;"></path><path d="M 56.3365875343069 -105.95371114307123 A 120 120 0 0 0 48.808397169096025 -109.62545491711211 L 40.67366430758002 -91.35454576426008 A 100 100 0 0 1 46.947156278589084 -88.29475928589268 L 56.3365875343069 -105.95371114307123" style="stroke: black; fill: black; stroke-width: 0.25;"></path><path d="M 63.59031170798459 -101.76577153877112 A 120 120 0 0 0 56.3365875343069 -105.95371114307123 L 46.947156278589084 -88.29475928589268 A 100 100 0 0 1 52.99192642332049 -84.8048096156426 L 63.59031170798459 -101.76577153877112" style="stroke: black; fill: black; stroke-width: 0.25;"></path><path d="M 70.53423027509677 -97.0820393249937 A 120 120 0 0 0 63.59031170798459 -101.76577153877112 L 52.99192642332049 -84.8048096156426 A 100 100 0 0 1 58.778525229247315 -80.90169943749474 L 70.53423027509677 -97.0820393249937" style="stroke: black; fill: black; stroke-width: 0.25;"></path><path d="M 83.35900445507968 -86.32077604063812 A 120 120 0 0 0 77.13451316238472 -91.92533317427736 L 64.27876096865394 -76.60444431189781 A 100 100 0 0 1 69.46583704589973 -71.93398003386511 L 83.35900445507968 -86.32077604063812" style="stroke: black; fill: black; stroke-width: 0.25;"></path><path d="M 94.56129043280664 -73.87937703907897 A 120 120 0 0 0 89.17737905728731 -80.29567276306298 L 74.31448254773943 -66.91306063588583 A 100 100 0 0 1 78.8010753606722 -61.56614753256582 L 94.56129043280664 -73.87937703907897" style="stroke: black; fill: black; stroke-width: 0.25;"></path><path d="M 111.26206254801448 -44.95279120990944 A 120 120 0 0 0 107.85528555590004 -52.60453761468929 L 89.8794046299167 -43.83711467890774 A 100 100 0 0 1 92.71838545667875 -37.4606593415912 L 111.26206254801448 -44.95279120990944" style="stroke: black; fill: black; stroke-width: 0.25;"></path><path d="M 114.12678195541842 -37.08203932499369 A 120 120 0 0 0 111.26206254801448 -44.95279120990944 L 92.71838545667875 -37.4606593415912 A 100 100 0 0 1 95.10565162951535 -30.901699437494738 L 114.12678195541842 -37.08203932499369" style="stroke: black; fill: black; stroke-width: 0.25;"></path><path d="M 119.9268992422915 -4.187939604300117 A 120 120 0 0 0 119.3426274441928 -12.543415592118414 L 99.45218953682733 -10.452846326765346 A 100 100 0 0 1 99.93908270190957 -3.489949670250097 L 119.9268992422915 -4.187939604300117" style="stroke: black; fill: black; stroke-width: 0.25;"></path><path d="M 119.9268992422915 4.187939604300117 A 120 120 0 0 0 119.9268992422915 -4.187939604300117 L 99.93908270190957 -3.489949670250097 A 100 100 0 0 1 99.93908270190957 3.489949670250097 L 119.9268992422915 4.187939604300117" style="stroke: black; fill: black; stroke-width: 0.25;"></path><path d="M 118.17693036146497 20.837781320031638 A 120 120 0 0 0 119.3426274441928 12.543415592118414 L 99.45218953682733 10.452846326765346 A 100 100 0 0 1 98.4807753012208 17.364817766693033 L 118.17693036146497 20.837781320031638" style="stroke: black; fill: black; stroke-width: 0.25;"></path><path d="M 116.43548715311958 29.030627471960127 A 120 120 0 0 0 118.17693036146497 20.837781320031638 L 98.4807753012208 17.364817766693033 A 100 100 0 0 1 97.02957262759965 24.192189559966774 L 116.43548715311958 29.030627471960127" style="stroke: black; fill: black; stroke-width: 0.25;"></path><path d="M 94.56129043280664 73.87937703907897 A 120 120 0 0 0 99.484508706605 67.10314841648963 L 82.90375725550416 55.91929034707469 A 100 100 0 0 1 78.8010753606722 61.56614753256582 L 94.56129043280664 73.87937703907897" style="stroke: black; fill: black; stroke-width: 0.25;"></path><path d="M 83.35900445507968 86.32077604063812 A 120 120 0 0 0 89.17737905728731 80.29567276306298 L 74.31448254773943 66.91306063588583 A 100 100 0 0 1 69.46583704589973 71.93398003386511 L 83.35900445507968 86.32077604063812" style="stroke: black; fill: black; stroke-width: 0.25;"></path><path d="M 77.13451316238472 91.92533317427736 A 120 120 0 0 0 83.35900445507968 86.32077604063812 L 69.46583704589973 71.93398003386511 A 100 100 0 0 1 64.27876096865394 76.60444431189781 L 77.13451316238472 91.92533317427736" style="stroke: black; fill: black; stroke-width: 0.25;"></path><path d="M 70.53423027509677 97.0820393249937 A 120 120 0 0 0 77.13451316238472 91.92533317427736 L 64.27876096865394 76.60444431189781 A 100 100 0 0 1 58.778525229247315 80.90169943749474 L 70.53423027509677 97.0820393249937" style="stroke: black; fill: black; stroke-width: 0.25;"></path><path d="M 63.59031170798459 101.76577153877112 A 120 120 0 0 0 70.53423027509677 97.0820393249937 L 58.778525229247315 80.90169943749474 A 100 100 0 0 1 52.99192642332049 84.8048096156426 L 63.59031170798459 101.76577153877112" style="stroke: black; fill: black; stroke-width: 0.25;"></path><path d="M 56.3365875343069 105.95371114307123 A 120 120 0 0 0 63.59031170798459 101.76577153877112 L 52.99192642332049 84.8048096156426 A 100 100 0 0 1 46.947156278589084 88.29475928589268 L 56.3365875343069 105.95371114307123" style="stroke: black; fill: black; stroke-width: 0.25;"></path><path d="M 48.808397169096025 109.62545491711211 A 120 120 0 0 0 56.3365875343069 105.95371114307123 L 46.947156278589084 88.29475928589268 A 100 100 0 0 1 40.67366430758002 91.35454576426008 L 48.808397169096025 109.62545491711211" style="stroke: black; fill: black; stroke-width: 0.25;"></path><path d="M 41.04241719908026 112.763114494309 A 120 120 0 0 0 48.808397169096025 109.62545491711211 L 40.67366430758002 91.35454576426008 A 100 100 0 0 1 34.20201433256688 93.96926207859083 L 41.04241719908026 112.763114494309" style="stroke: black; fill: black; stroke-width: 0.25;"></path><path d="M 16.700772115207883 118.83216824898842 A 120 120 0 0 0 24.949402898131133 117.37771208805667 L 20.791169081775944 97.81476007338055 A 100 100 0 0 1 13.917310096006569 99.02680687415703 L 16.700772115207883 118.83216824898842" style="stroke: black; fill: black; stroke-width: 0.25;"></path><path d="M 8.370776849295055 119.70768603117891 A 120 120 0 0 0 16.700772115207883 118.83216824898842 L 13.917310096006569 99.02680687415703 A 100 100 0 0 1 6.975647374412546 99.75640502598242 L 8.370776849295055 119.70768603117891" style="stroke: black; fill: black; stroke-width: 0.25;"></path><path d="M -8.370776849295039 119.70768603117891 A 120 120 0 0 0 7.34788079488412e-15 120 L 6.123233995736766e-15 100 A 100 100 0 0 1 -6.975647374412533 99.75640502598242 L -8.370776849295039 119.70768603117891" style="stroke: black; fill: black; stroke-width: 0.25;"></path><path d="M -33.07648269803989 115.35140351259827 A 120 120 0 0 0 -24.949402898131094 117.37771208805668 L -20.791169081775912 97.81476007338057 A 100 100 0 0 1 -27.563735581699905 96.12616959383189 L -33.07648269803989 115.35140351259827" style="stroke: black; fill: black; stroke-width: 0.25;"></path><path d="M -56.336587534306865 105.95371114307125 A 120 120 0 0 0 -48.808397169096004 109.62545491711212 L -40.673664307580005 91.3545457642601 A 100 100 0 0 1 -46.947156278589055 88.29475928589271 L -56.336587534306865 105.95371114307125" style="stroke: black; fill: black; stroke-width: 0.25;"></path><path d="M -63.590311707984576 101.76577153877113 A 120 120 0 0 0 -56.336587534306865 105.95371114307125 L -46.947156278589055 88.29475928589271 A 100 100 0 0 1 -52.99192642332048 84.80480961564261 L -63.590311707984576 101.76577153877113" style="stroke: black; fill: black; stroke-width: 0.25;"></path><path d="M -99.484508706605 67.10314841648963 A 120 120 0 0 0 -94.56129043280663 73.879377039079 L -78.80107536067219 61.56614753256584 A 100 100 0 0 1 -82.90375725550416 55.91929034707469 L -99.484508706605 67.10314841648963" style="stroke: black; fill: black; stroke-width: 0.25;"></path><path d="M -107.85528555590004 52.60453761468928 A 120 120 0 0 0 -103.92304845413264 59.99999999999999 L -86.60254037844388 49.99999999999999 A 100 100 0 0 1 -89.8794046299167 43.83711467890773 L -107.85528555590004 52.60453761468928" style="stroke: black; fill: black; stroke-width: 0.25;"></path><path d="M -111.26206254801448 44.95279120990947 A 120 120 0 0 0 -107.85528555590004 52.60453761468928 L -89.8794046299167 43.83711467890773 A 100 100 0 0 1 -92.71838545667873 37.460659341591224 L -111.26206254801448 44.95279120990947" style="stroke: black; fill: black; stroke-width: 0.25;"></path><path d="M -114.12678195541842 37.0820393249937 A 120 120 0 0 0 -111.26206254801448 44.95279120990947 L -92.71838545667873 37.460659341591224 A 100 100 0 0 1 -95.10565162951535 30.901699437494752 L -114.12678195541842 37.0820393249937" style="stroke: black; fill: black; stroke-width: 0.25;"></path><path d="M -116.43548715311958 29.030627471960127 A 120 120 0 0 0 -114.12678195541842 37.0820393249937 L -95.10565162951535 30.901699437494752 A 100 100 0 0 1 -97.02957262759965 24.192189559966774 L -116.43548715311958 29.030627471960127" style="stroke: black; fill: black; stroke-width: 0.25;"></path><path d="M -118.17693036146497 20.837781320031635 A 120 120 0 0 0 -116.43548715311958 29.030627471960127 L -97.02957262759965 24.192189559966774 A 100 100 0 0 1 -98.4807753012208 17.364817766693026 L -118.17693036146497 20.837781320031635" style="stroke: black; fill: black; stroke-width: 0.25;"></path><path d="M -119.9268992422915 -4.187939604300108 A 120 120 0 0 0 -119.9268992422915 4.187939604300084 L -99.93908270190957 3.48994967025007 A 100 100 0 0 1 -99.93908270190957 -3.48994967025009 L -119.9268992422915 -4.187939604300108" style="stroke: black; fill: black; stroke-width: 0.25;"></path><path d="M -118.17693036146497 -20.837781320031656 A 120 120 0 0 0 -119.34262744419281 -12.543415592118366 L -99.45218953682733 -10.452846326765306 A 100 100 0 0 1 -98.4807753012208 -17.364817766693047 L -118.17693036146497 -20.837781320031656" style="stroke: black; fill: black; stroke-width: 0.25;"></path><path d="M -116.43548715311958 -29.030627471960102 A 120 120 0 0 0 -118.17693036146497 -20.837781320031656 L -98.4807753012208 -17.364817766693047 A 100 100 0 0 1 -97.02957262759965 -24.19218955996675 L -116.43548715311958 -29.030627471960102" style="stroke: black; fill: black; stroke-width: 0.25;"></path><path d="M -114.12678195541842 -37.08203932499373 A 120 120 0 0 0 -116.43548715311958 -29.030627471960102 L -97.02957262759965 -24.19218955996675 A 100 100 0 0 1 -95.10565162951535 -30.901699437494774 L -114.12678195541842 -37.08203932499373" style="stroke: black; fill: black; stroke-width: 0.25;"></path><path d="M -107.85528555590005 -52.60453761468925 A 120 120 0 0 0 -111.26206254801448 -44.95279120990944 L -92.71838545667875 -37.4606593415912 A 100 100 0 0 1 -89.87940462991672 -43.83711467890771 L -107.85528555590005 -52.60453761468925" style="stroke: black; fill: black; stroke-width: 0.25;"></path><path d="M -99.48450870660503 -67.1031484164896 A 120 120 0 0 0 -103.92304845413263 -60.000000000000014 L -86.60254037844386 -50.000000000000014 A 100 100 0 0 1 -82.90375725550419 -55.91929034707467 L -99.48450870660503 -67.1031484164896" style="stroke: black; fill: black; stroke-width: 0.25;"></path><path d="M -89.17737905728731 -80.29567276306298 A 120 120 0 0 0 -94.56129043280667 -73.87937703907895 L -78.80107536067223 -61.566147532565786 A 100 100 0 0 1 -74.31448254773943 -66.91306063588583 L -89.17737905728731 -80.29567276306298" style="stroke: black; fill: black; stroke-width: 0.25;"></path><path d="M -77.13451316238474 -91.92533317427734 A 120 120 0 0 0 -83.35900445507971 -86.32077604063811 L -69.46583704589976 -71.93398003386508 A 100 100 0 0 1 -64.27876096865394 -76.6044443118978 L -77.13451316238474 -91.92533317427734" style="stroke: black; fill: black; stroke-width: 0.25;"></path><path d="M -56.33658753430689 -105.95371114307125 A 120 120 0 0 0 -63.590311707984604 -101.76577153877112 L -52.9919264233205 -84.8048096156426 A 100 100 0 0 1 -46.94715627858908 -88.2947592858927 L -56.33658753430689 -105.95371114307125" style="stroke: black; fill: black; stroke-width: 0.25;"></path><path d="M -41.042417199080326 -112.76311449430898 A 120 120 0 0 0 -48.80839716909601 -109.62545491711212 L -40.67366430758001 -91.3545457642601 A 100 100 0 0 1 -34.20201433256694 -93.96926207859082 L -41.042417199080326 -112.76311449430898" style="stroke: black; fill: black; stroke-width: 0.25;"></path><path d="M -24.949402898131176 -117.37771208805667 A 120 120 0 0 0 -33.07648269803987 -115.35140351259828 L -27.563735581699888 -96.1261695938319 A 100 100 0 0 1 -20.79116908177598 -97.81476007338055 L -24.949402898131176 -117.37771208805667" style="stroke: black; fill: black; stroke-width: 0.25;"></path><path d="M -8.37077684929507 -119.70768603117891 A 120 120 0 0 0 -16.700772115207794 -118.83216824898844 L -13.917310096006494 -99.02680687415703 A 100 100 0 0 1 -6.975647374412558 -99.75640502598242 L -8.37077684929507 -119.70768603117891" style="stroke: black; fill: black; stroke-width: 0.25;"></path></svg>
